<?xml version="1.0" standalone="no"?>
<!DOCTYPE svg PUBLIC "-//W3C//DTD SVG 20010904//EN"
 "http://www.w3.org/TR/2001/REC-SVG-20010904/DTD/svg10.dtd">
<svg version="1.0" xmlns="http://www.w3.org/2000/svg"
 width="640.000000pt" height="640.000000pt" viewBox="0 0 640.000000 640.000000"
 preserveAspectRatio="xMidYMid meet">
<metadata>
Created by potrace 1.14, written by Peter Selinger 2001-2017
</metadata>
<g transform="translate(0.000000,640.000000) scale(0.100000,-0.100000)"
fill="#000000" stroke="none">
<path d="M5447 5883 c-4 -3 -7 -966 -7 -2139 0 -1268 -4 -2135 -9 -2138 -5 -4
-199 -7 -431 -8 l-422 -3 -29 35 c-16 19 -31 44 -33 55 -3 11 -12 56 -21 100
-24 113 -55 235 -71 272 -8 17 -14 35 -14 41 0 24 -134 308 -156 330 -8 7 -14
17 -14 22 0 4 -25 46 -55 92 -58 87 -64 105 -40 110 8 2 51 39 97 84 46 44 99
86 118 94 101 38 180 135 180 218 0 37 9 55 60 115 25 29 35 19 47 -45 6 -35
17 -81 23 -103 13 -40 12 -41 -25 -78 -36 -36 -37 -38 -31 -94 7 -72 7 -77 0
-141 -4 -39 -2 -59 10 -77 21 -32 20 -38 -9 -81 -23 -33 -23 -38 -10 -64 66
-127 213 -32 203 132 -2 45 1 62 12 71 35 26 58 84 70 172 7 50 13 104 12 120
-7 240 -7 239 -34 296 -50 101 -58 136 -58 248 0 79 4 112 15 127 20 27 20
152 -1 201 -9 21 -31 68 -50 106 l-34 67 21 21 c26 26 42 20 50 -19 4 -18 18
-46 31 -64 30 -40 40 -68 40 -117 0 -20 5 -45 11 -56 7 -11 14 -63 17 -115 l5
-94 40 -28 c29 -20 52 -27 86 -28 41 0 50 4 73 34 20 27 26 46 26 87 0 48 -3
55 -40 86 -33 28 -38 38 -31 56 5 12 6 47 3 77 -4 42 -12 63 -33 88 -20 23
-29 43 -29 68 0 19 -6 47 -14 62 -7 15 -23 72 -35 127 -22 99 -47 145 -78 145
-8 0 -25 11 -39 25 -20 20 -24 31 -19 59 4 20 2 36 -4 40 -6 4 -11 16 -11 26
0 26 -41 62 -107 95 -88 45 -223 196 -223 249 0 10 -14 48 -31 84 -17 37 -33
82 -36 99 -4 20 -24 53 -53 84 -50 54 -73 62 -240 89 -93 16 -127 36 -162 98
-30 53 -122 142 -146 142 -7 0 -24 7 -38 17 -21 13 -58 16 -227 18 l-202 1
-88 47 c-80 42 -95 47 -154 47 -86 0 -124 -22 -189 -108 -9 -12 -17 -10 -53
13 -35 24 -53 29 -109 29 -65 1 -69 -1 -127 -45 -104 -79 -156 -99 -302 -114
-57 -6 -65 -10 -103 -52 -22 -25 -63 -79 -91 -119 -27 -41 -55 -74 -61 -74
-45 0 -178 -102 -178 -136 0 -7 -15 -30 -32 -50 -57 -64 -168 -275 -168 -319
0 -8 -6 -18 -13 -22 -8 -4 -22 -24 -33 -43 -10 -19 -31 -50 -46 -67 -45 -54
-55 -110 -42 -240 l7 -72 -29 -7 c-50 -13 -94 -45 -114 -85 -23 -43 -26 -99
-8 -118 11 -10 10 -14 -2 -22 -60 -38 -97 -60 -108 -65 -19 -9 -42 15 -42 45
0 15 -7 36 -15 47 -8 10 -15 28 -15 39 0 11 -6 29 -13 40 -7 11 -19 45 -27 75
-7 30 -26 82 -42 115 -15 33 -28 69 -28 80 0 11 -9 34 -20 50 -11 17 -20 39
-20 49 0 38 -40 104 -67 111 -14 3 -28 4 -30 1 -3 -3 2 -27 11 -53 9 -26 23
-68 31 -93 21 -68 114 -342 125 -365 5 -11 18 -49 30 -85 11 -36 25 -74 30
-85 5 -11 25 -67 44 -125 19 -58 62 -184 96 -280 34 -96 74 -213 90 -260 16
-47 48 -137 70 -200 69 -196 80 -229 80 -241 0 -6 6 -25 14 -42 19 -46 53
-139 59 -162 3 -11 17 -54 32 -95 50 -138 147 -414 166 -475 24 -75 37 -85 92
-74 55 11 57 11 57 -1 0 -5 -5 -10 -11 -10 -6 0 -22 -9 -36 -20 -14 -11 -36
-20 -49 -20 -12 0 -26 -5 -29 -10 -9 -14 -65 -12 -69 3 -10 37 -59 189 -76
232 -10 28 -26 77 -36 110 -9 33 -23 71 -30 85 -7 14 -31 80 -54 148 -22 67
-45 132 -49 145 -5 12 -21 58 -34 102 -14 44 -42 125 -62 180 -51 141 -124
352 -141 405 -8 25 -18 54 -23 65 -13 31 -42 116 -51 150 -5 17 -18 55 -30 85
-11 30 -34 93 -50 140 -53 157 -90 265 -104 300 -8 19 -23 64 -35 100 -11 36
-32 97 -46 135 -14 39 -39 113 -56 165 -17 52 -36 101 -41 108 -17 20 -38 -5
-38 -45 0 -18 -6 -35 -12 -37 -55 -17 -173 -51 -218 -63 -30 -8 -77 -21 -105
-28 -58 -16 -120 -32 -190 -49 -27 -7 -63 -18 -78 -24 -16 -7 -39 -12 -53 -12
-14 0 -41 -7 -61 -15 -19 -8 -43 -15 -52 -15 -39 -1 -40 -10 -26 -145 8 -72
19 -148 25 -170 5 -22 10 -69 10 -105 0 -36 7 -94 15 -130 8 -36 14 -85 15
-110 0 -25 9 -98 20 -164 l19 -119 -76 -153 c-41 -85 -79 -157 -84 -160 -5 -3
-9 -388 -9 -869 l0 -864 45 3 c25 1 47 4 49 7 2 2 6 79 8 171 3 93 7 171 11
174 3 3 113 6 244 6 l238 -1 1 -28 c1 -15 2 -274 3 -574 l1 -546 83 -5 c125
-8 177 1 196 34 9 14 30 38 47 52 24 19 33 37 38 68 3 24 6 258 7 521 2 262 6
477 11 478 4 0 97 0 206 1 l197 0 3 -168 c1 -93 7 -173 12 -178 5 -5 56 -8
112 -7 102 2 102 3 134 36 18 19 44 49 58 67 l25 32 28 -20 c42 -31 84 -51
124 -58 33 -6 38 -11 48 -52 6 -24 18 -47 25 -50 21 -8 54 13 58 37 2 14 15
25 38 33 30 9 35 16 35 41 0 30 -1 30 -52 29 -29 -1 -53 2 -53 6 0 4 7 21 15
36 25 48 29 91 11 119 -18 27 -21 71 -7 80 5 3 12 -4 16 -15 4 -11 18 -33 31
-47 13 -15 27 -38 30 -52 2 -14 17 -64 33 -111 15 -47 26 -90 24 -97 -2 -7
-19 -17 -38 -23 -40 -13 -47 -41 -40 -152 6 -86 -5 -108 -54 -108 -31 0 -112
-39 -114 -55 -1 -7 416 -11 1231 -13 1073 -2 1232 0 1232 12 0 18 -81 56 -119
56 -50 0 -52 5 -49 171 l3 154 110 1 c123 1 134 5 213 79 56 52 74 87 81 158
l6 59 415 -1 415 -1 3 -57 c2 -32 7 -62 11 -66 9 -9 888 -14 896 -5 3 3 5
1005 6 2228 0 1799 -3 2225 -13 2232 -15 9 -872 11 -881 1z m-2583 -1758 c11
-8 27 -15 35 -15 42 0 181 -132 181 -172 0 -7 8 -24 17 -38 26 -38 24 -255 -4
-335 -12 -33 -26 -61 -32 -63 -6 -2 -11 -13 -11 -24 0 -12 -7 -28 -15 -37 -8
-9 -31 -36 -52 -60 -52 -61 -147 -131 -176 -131 -14 0 -30 -7 -37 -15 -18 -21
-229 -21 -270 0 -116 60 -191 145 -213 240 -24 104 -14 280 19 332 8 12 14 27
14 33 0 13 31 59 89 128 54 66 164 142 206 142 16 1 41 7 55 15 34 20 168 19
194 0z m789 -7 c27 -8 52 -19 55 -24 4 -5 23 -17 42 -27 37 -19 130 -99 130
-112 0 -4 13 -24 28 -44 39 -49 72 -117 72 -145 0 -13 7 -41 16 -62 13 -31 15
-57 10 -124 -4 -46 -11 -89 -16 -94 -6 -6 -10 -22 -10 -37 0 -15 -7 -32 -15
-39 -8 -7 -15 -18 -15 -24 0 -21 -112 -121 -161 -144 -38 -18 -63 -22 -152
-22 -100 0 -111 2 -175 33 -75 35 -83 42 -151 108 -110 108 -162 249 -156 417
2 46 8 89 14 95 6 6 11 18 11 27 0 43 102 180 135 180 6 0 17 6 23 13 7 6 34
20 60 29 56 20 181 18 255 -4z m-2157 -648 c20 -66 18 -133 -4 -153 -24 -22
-42 -5 -42 41 0 19 -7 46 -16 62 -12 19 -15 38 -10 64 6 33 10 37 33 34 21 -2
28 -11 39 -48z m214 -336 c14 -30 31 -60 38 -66 22 -19 14 -46 -18 -56 -20 -8
-31 -19 -35 -39 -4 -15 -9 -39 -11 -53 -5 -24 -6 -24 -16 -5 -6 11 -24 35 -41
52 -25 27 -31 43 -34 90 -4 55 -2 60 32 96 20 20 42 37 48 37 7 0 23 -25 37
-56z m-388 -70 c3 -16 13 -56 22 -89 8 -33 15 -71 16 -84 0 -14 6 -32 14 -40
18 -21 61 -108 74 -148 18 -57 29 -56 -453 -53 -87 1 -163 4 -167 6 -14 9 1
23 50 49 26 14 54 29 62 35 8 5 37 22 63 37 27 15 59 35 72 43 12 8 53 33 90
54 l67 39 -6 61 c-6 67 -5 72 39 104 37 26 47 24 57 -14z m358 -231 c0 -16 3
-38 6 -50 7 -25 -20 -43 -37 -26 -15 15 -14 70 1 88 19 23 30 18 30 -12z m237
-5 c49 -56 137 -142 170 -166 l32 -23 -29 -41 c-17 -23 -30 -47 -30 -54 0 -7
-9 -18 -19 -24 -27 -14 -35 2 -36 70 l0 55 -82 0 c-45 0 -85 3 -89 8 -4 4 2
17 14 30 24 25 21 51 -13 117 -17 32 -17 34 1 47 28 21 50 16 81 -19z m-1693
-50 c13 -66 15 -117 3 -126 -16 -14 -73 -10 -89 6 -11 11 -10 16 4 26 9 6 27
35 39 64 25 57 36 64 43 30z m296 -213 c0 -27 -12 -32 -29 -12 -8 10 -7 17 1
25 19 19 28 14 28 -13z m836 -30 c16 -8 41 -15 55 -15 14 0 34 -9 43 -19 10
-11 28 -21 40 -23 28 -4 32 -39 7 -62 -19 -17 -23 -16 -133 24 -62 23 -117 46
-123 52 -7 6 0 18 20 34 35 28 52 30 91 9z m-198 -62 c2 -7 -5 -16 -15 -20
-10 -3 -43 -25 -73 -48 -30 -23 -73 -52 -95 -65 -22 -13 -45 -28 -50 -34 -6
-6 -24 -20 -40 -32 -17 -11 -54 -37 -83 -58 -36 -25 -62 -36 -80 -34 -38 4
-42 35 -5 44 15 4 35 13 43 21 19 17 210 153 216 153 7 0 109 75 113 83 5 13
64 4 69 -10z m851 5 c0 -7 -9 -26 -19 -43 -10 -16 -31 -55 -45 -85 -15 -30
-31 -62 -36 -70 -5 -8 -14 -27 -20 -43 -6 -15 -20 -32 -30 -38 -17 -8 -19 -6
-19 19 0 16 -6 35 -14 41 -26 22 -4 61 83 146 86 85 102 96 100 73z m-761 -32
c15 -8 64 -27 110 -42 45 -15 85 -30 87 -35 6 -8 -110 -107 -249 -214 -50 -38
-107 -85 -126 -102 -37 -36 -79 -43 -100 -18 -7 8 -21 15 -31 15 -11 0 -36 9
-56 20 -21 11 -45 20 -54 20 -21 0 -86 27 -93 38 -3 5 28 31 69 58 41 26 75
52 75 56 0 4 5 8 11 8 6 0 30 16 53 35 24 19 48 35 55 35 6 0 14 7 17 15 4 8
11 15 16 15 5 0 29 16 52 35 24 19 48 35 53 35 5 0 18 9 28 20 21 24 47 25 83
6z m1988 -378 c68 -29 100 -55 142 -113 57 -77 72 -118 72 -200 0 -130 -65
-234 -188 -298 -63 -33 -78 -37 -147 -37 -95 0 -164 30 -236 101 -71 71 -92
117 -97 221 -4 80 -2 91 26 150 61 128 164 195 303 197 58 1 88 -4 125 -21z
m-1837 -302 c1 -104 -2 -157 -10 -161 -20 -13 -401 -16 -415 -4 -24 20 -15 29
29 29 35 0 52 7 88 37 24 21 46 40 49 43 3 3 43 39 90 80 46 41 96 87 110 102
14 15 32 27 41 27 15 1 17 -17 18 -153z m581 -18 c0 -17 7 -40 16 -50 13 -13
14 -21 5 -31 -6 -8 -10 -33 -9 -56 1 -22 -2 -44 -6 -48 -4 -4 -22 9 -39 29
-18 20 -45 39 -60 42 -25 6 -28 10 -22 33 4 17 0 31 -11 44 -10 11 -15 21 -13
23 18 16 89 45 112 46 24 0 27 -4 27 -32z m-275 -68 c3 -5 -1 -10 -9 -10 -9 0
-16 5 -16 10 0 6 4 10 9 10 6 0 13 -4 16 -10z m-1130 -46 c17 -4 25 -12 23
-23 -3 -14 -32 -17 -241 -21 -144 -3 -242 -1 -248 5 -15 15 -11 33 9 37 31 8
429 9 457 2z"/>
<path d="M2816 3679 c-32 -25 -33 -49 -3 -77 31 -29 48 -28 81 7 l29 30 -31
30 c-36 37 -41 37 -76 10z"/>
<path d="M3353 3688 c-34 -16 -38 -44 -11 -78 29 -37 47 -37 81 -2 31 32 28
52 -8 76 -28 18 -32 19 -62 4z"/>
<path d="M3005 2021 c-40 -13 -81 -45 -113 -86 -34 -45 -72 -138 -72 -178 0
-38 41 -157 54 -157 14 0 180 167 195 197 12 25 14 81 5 172 -7 65 -15 71 -69
52z"/>
<path d="M3157 2024 c-4 -4 -7 -58 -7 -121 l0 -113 48 -49 c26 -26 66 -69 90
-95 23 -25 46 -46 51 -46 19 0 40 39 52 97 23 114 -26 232 -125 299 -35 24
-97 40 -109 28z"/>
<path d="M2996 1604 c-55 -53 -58 -57 -46 -80 8 -13 20 -24 27 -24 8 0 28 -7
44 -16 21 -10 34 -12 43 -5 15 12 16 173 1 177 -5 2 -36 -22 -69 -52z"/>
<path d="M3157 1653 c-10 -9 -9 -171 1 -177 13 -8 80 18 107 42 l25 21 -58 61
c-59 62 -64 65 -75 53z"/>
<path d="M0 55 c0 -13 358 -15 3171 -15 2532 0 3170 3 3167 12 -4 10 -649 14
-3171 16 -2811 2 -3167 0 -3167 -13z"/>
</g>
</svg>
